{
    "asset" : {
        "generator" : "Khronos glTF Blender I/O v1.5.17",
        "version" : "2.0"
    },
    "extensionsUsed" : [
        "KHR_materials_clearcoat"
    ],
    "scene" : 0,
    "scenes" : [
        {
            "name" : "Scene",
            "nodes" : [
                16
            ]
        }
    ],
    "nodes" : [
        {
            "mesh" : 0,
            "name" : "fire"
        },
        {
            "mesh" : 1,
            "name" : "foil"
        },
        {
            "children" : [
                0,
                1
            ],
            "mesh" : 2,
            "name" : "diamond",
            "rotation" : [
                -1,
                0,
                0,
                4.371138473402425e-08
            ],
            "translation" : [
                -3.814697265625e-06,
                0.9155130386352539,
                3.814697265625e-06
            ]
        },
        {
            "children" : [
                2
            ],
            "mesh" : 3,
            "name" : "setting",
            "scale" : [
                0.03545704856514931,
                0.03545704856514931,
                0.03545704856514931
            ],
            "translation" : [
                0.669283926486969,
                0.17408661544322968,
                -0.6889511942863464
            ]
        },
        {
            "mesh" : 0,
            "name" : "fire.001"
        },
        {
            "mesh" : 1,
            "name" : "foil.001"
        },
        {
            "children" : [
                4,
                5
            ],
            "mesh" : 2,
            "name" : "diamond.001",
            "rotation" : [
                -1,
                0,
                0,
                4.371138473402425e-08
            ],
            "translation" : [
                0,
                0.9155130386352539,
                3.814697265625e-06
            ]
        },
        {
            "children" : [
                6
            ],
            "mesh" : 3,
            "name" : "setting.001",
            "scale" : [
                0.03545704856514931,
                0.03545704856514931,
                0.03545704856514931
            ],
            "translation" : [
                -0.6692839860916138,
                0.17408661544322968,
                -0.6889511942863464
            ]
        },
        {
            "mesh" : 0,
            "name" : "fire.002"
        },
        {
            "mesh" : 1,
            "name" : "foil.002"
        },
        {
            "children" : [
                8,
                9
            ],
            "mesh" : 2,
            "name" : "diamond.002",
            "rotation" : [
                -1,
                0,
                0,
                4.371138473402425e-08
            ],
            "translation" : [
                -3.814697265625e-06,
                0.9155130386352539,
                0
            ]
        },
        {
            "children" : [
                10
            ],
            "mesh" : 3,
            "name" : "setting.002",
            "scale" : [
                0.03545704856514931,
                0.03545704856514931,
                0.03545704856514931
            ],
            "translation" : [
                0.669283926486969,
                0.17408661544322968,
                0.6889510154724121
            ]
        },
        {
            "mesh" : 0,
            "name" : "fire.003"
        },
        {
            "mesh" : 1,
            "name" : "foil.003"
        },
        {
            "children" : [
                12,
                13
            ],
            "mesh" : 2,
            "name" : "diamond.003",
            "rotation" : [
                -1,
                0,
                0,
                4.371138473402425e-08
            ],
            "translation" : [
                0,
                0.9155130386352539,
                0
            ]
        },
        {
            "children" : [
                14
            ],
            "mesh" : 3,
            "name" : "setting.003",
            "scale" : [
                0.03545704856514931,
                0.03545704856514931,
                0.03545704856514931
            ],
            "translation" : [
                -0.6692839860916138,
                0.17408661544322968,
                0.6889510154724121
            ]
        },
        {
            "children" : [
                3,
                7,
                11,
                15
            ],
            "name" : "studs_root"
        }
    ],
    "materials" : [
        {
            "alphaMode" : "BLEND",
            "doubleSided" : true,
            "name" : "diamond_fire",
            "pbrMetallicRoughness" : {
                "baseColorFactor" : [
                    1,
                    1,
                    1,
                    0.6000000238418579
                ],
                "roughnessFactor" : 0
            }
        },
        {
            "doubleSided" : true,
            "emissiveFactor" : [
                1,
                1,
                1
            ],
            "name" : "diamond_foil",
            "pbrMetallicRoughness" : {
                "metallicFactor" : 0,
                "roughnessFactor" : 0
            }
        },
        {
            "alphaMode" : "BLEND",
            "doubleSided" : true,
            "extensions" : {
                "KHR_materials_clearcoat" : {
                    "clearcoatFactor" : 0.16363635659217834,
                    "clearcoatRoughnessFactor" : 0
                }
            },
            "name" : "diamond_face",
            "pbrMetallicRoughness" : {
                "baseColorFactor" : [
                    1,
                    1,
                    1,
                    0.5
                ],
                "metallicFactor" : 0.699999988079071,
                "roughnessFactor" : 0
            }
        },
        {
            "extensions" : {
                "KHR_materials_clearcoat" : {
                    "clearcoatFactor" : 0.3863636255264282,
                    "clearcoatRoughnessFactor" : 0.029999999329447746
                }
            },
            "name" : "setting_gold",
            "normalTexture" : {
                "index" : 0
            },
            "pbrMetallicRoughness" : {
                "baseColorFactor" : [
                    1,
                    0.8307697176933289,
                    0.18782088160514832,
                    1
                ],
                "metallicRoughnessTexture" : {
                    "index" : 1
                }
            }
        }
    ],
    "meshes" : [
        {
            "name" : "Cone.001",
            "primitives" : [
                {
                    "attributes" : {
                        "POSITION" : 0,
                        "NORMAL" : 1,
                        "TEXCOORD_0" : 2
                    },
                    "indices" : 3,
                    "material" : 0
                }
            ]
        },
        {
            "name" : "Cone.002",
            "primitives" : [
                {
                    "attributes" : {
                        "POSITION" : 4,
                        "NORMAL" : 5,
                        "TEXCOORD_0" : 6
                    },
                    "indices" : 7,
                    "material" : 1
                }
            ]
        },
        {
            "name" : "Cone",
            "primitives" : [
                {
                    "attributes" : {
                        "POSITION" : 8,
                        "NORMAL" : 9,
                        "TEXCOORD_0" : 10
                    },
                    "indices" : 11,
                    "material" : 2
                }
            ]
        },
        {
            "name" : "Cylinder",
            "primitives" : [
                {
                    "attributes" : {
                        "POSITION" : 12,
                        "NORMAL" : 13,
                        "TEXCOORD_0" : 14
                    },
                    "indices" : 15,
                    "material" : 3
                }
            ]
        }
    ],
    "textures" : [
        {
            "sampler" : 0,
            "source" : 0
        },
        {
            "sampler" : 0,
            "source" : 1
        }
    ],
    "images" : [
        {
            "mimeType" : "image/png",
            "name" : "smaller-bronzePolished_Normal",
            "uri" : "smaller-bronzePolished_Normal.png"
        },
        {
            "mimeType" : "image/png",
            "name" : "smaller-bronzePolished_Metallic-smaller-bronzePolished_Roughness",
            "uri" : "smaller-bronzePolished_Metallic-smaller-bronzePolished_Roughness.png"
        }
    ],
    "accessors" : [
        {
            "bufferView" : 0,
            "componentType" : 5126,
            "count" : 384,
            "max" : [
                0.9951844811439514,
                0.981963038444519,
                0.9951844215393066
            ],
            "min" : [
                -0.9951843023300171,
                -0.008226454257965088,
                -0.9951844215393066
            ],
            "type" : "VEC3"
        },
        {
            "bufferView" : 1,
            "componentType" : 5126,
            "count" : 384,
            "type" : "VEC3"
        },
        {
            "bufferView" : 2,
            "componentType" : 5126,
            "count" : 384,
            "type" : "VEC2"
        },
        {
            "bufferView" : 3,
            "componentType" : 5123,
            "count" : 384,
            "type" : "SCALAR"
        },
        {
            "bufferView" : 4,
            "componentType" : 5126,
            "count" : 48,
            "max" : [
                0.9951844811439514,
                1,
                0.9951844215393066
            ],
            "min" : [
                -0.9951843023300171,
                -0.008226454257965088,
                -0.9951844215393066
            ],
            "type" : "VEC3"
        },
        {
            "bufferView" : 5,
            "componentType" : 5126,
            "count" : 48,
            "type" : "VEC3"
        },
        {
            "bufferView" : 6,
            "componentType" : 5126,
            "count" : 48,
            "type" : "VEC2"
        },
        {
            "bufferView" : 7,
            "componentType" : 5123,
            "count" : 48,
            "type" : "SCALAR"
        },
        {
            "bufferView" : 8,
            "componentType" : 5126,
            "count" : 176,
            "max" : [
                0.9951844811439514,
                -0.008226454257965088,
                0.9951844215393066
            ],
            "min" : [
                -0.9951843023300171,
                -0.18531009554862976,
                -0.9951844215393066
            ],
            "type" : "VEC3"
        },
        {
            "bufferView" : 9,
            "componentType" : 5126,
            "count" : 176,
            "type" : "VEC3"
        },
        {
            "bufferView" : 10,
            "componentType" : 5126,
            "count" : 176,
            "type" : "VEC2"
        },
        {
            "bufferView" : 11,
            "componentType" : 5123,
            "count" : 186,
            "type" : "SCALAR"
        },
        {
            "bufferView" : 12,
            "componentType" : 5126,
            "count" : 303,
            "max" : [
                1.2066154479980469,
                1.048727035522461,
                1.2066154479980469
            ],
            "min" : [
                -1.2066154479980469,
                -0.6767752766609192,
                -1.2066153287887573
            ],
            "type" : "VEC3"
        },
        {
            "bufferView" : 13,
            "componentType" : 5126,
            "count" : 303,
            "type" : "VEC3"
        },
        {
            "bufferView" : 14,
            "componentType" : 5126,
            "count" : 303,
            "type" : "VEC2"
        },
        {
            "bufferView" : 15,
            "componentType" : 5123,
            "count" : 576,
            "type" : "SCALAR"
        }
    ],
    "bufferViews" : [
        {
            "buffer" : 0,
            "byteLength" : 4608,
            "byteOffset" : 0
        },
        {
            "buffer" : 0,
            "byteLength" : 4608,
            "byteOffset" : 4608
        },
        {
            "buffer" : 0,
            "byteLength" : 3072,
            "byteOffset" : 9216
        },
        {
            "buffer" : 0,
            "byteLength" : 768,
            "byteOffset" : 12288
        },
        {
            "buffer" : 0,
            "byteLength" : 576,
            "byteOffset" : 13056
        },
        {
            "buffer" : 0,
            "byteLength" : 576,
            "byteOffset" : 13632
        },
        {
            "buffer" : 0,
            "byteLength" : 384,
            "byteOffset" : 14208
        },
        {
            "buffer" : 0,
            "byteLength" : 96,
            "byteOffset" : 14592
        },
        {
            "buffer" : 0,
            "byteLength" : 2112,
            "byteOffset" : 14688
        },
        {
            "buffer" : 0,
            "byteLength" : 2112,
            "byteOffset" : 16800
        },
        {
            "buffer" : 0,
            "byteLength" : 1408,
            "byteOffset" : 18912
        },
        {
            "buffer" : 0,
            "byteLength" : 372,
            "byteOffset" : 20320
        },
        {
            "buffer" : 0,
            "byteLength" : 3636,
            "byteOffset" : 20692
        },
        {
            "buffer" : 0,
            "byteLength" : 3636,
            "byteOffset" : 24328
        },
        {
            "buffer" : 0,
            "byteLength" : 2424,
            "byteOffset" : 27964
        },
        {
            "buffer" : 0,
            "byteLength" : 1152,
            "byteOffset" : 30388
        }
    ],
    "samplers" : [
        {
            "magFilter" : 9729,
            "minFilter" : 9987
        }
    ],
    "buffers" : [
        {
            "byteLength" : 31540,
            "uri" : "watch_studs.bin"
        }
    ]
}
